<?xml version="1.0" encoding="UTF-8"?><svg xmlns="http://www.w3.org/2000/svg" xmlns:xlink="http://www.w3.org/1999/xlink" contentScriptType="text/ecmascript" width="375" zoomAndPan="magnify" contentStyleType="text/css" viewBox="0 0 375 374.999991" height="374.999991" preserveAspectRatio="xMidYMid meet" version="1.0"><defs><clipPath id="clip-0"><path d="M 67.839844 67.101562 L 344.441406 67.101562 L 344.441406 375 L 67.839844 375 Z M 67.839844 67.101562 " clip-rule="nonzero"/></clipPath><clipPath id="clip-1"><path d="M 248.40625 88.085938 L 347.644531 88.085938 L 347.644531 287.773438 L 248.40625 287.773438 Z M 248.40625 88.085938 " clip-rule="nonzero"/></clipPath><clipPath id="clip-2"><path d="M 37.5 18.316406 L 167.25 18.316406 L 167.25 87.316406 L 37.5 87.316406 Z M 37.5 18.316406 " clip-rule="nonzero"/></clipPath><clipPath id="clip-3"><path d="M 214 31.78125 L 237 31.78125 L 237 73.78125 L 214 73.78125 Z M 214 31.78125 " clip-rule="nonzero"/></clipPath><clipPath id="clip-4"><path d="M 207.773438 45 L 213 45 L 213 62 L 207.773438 62 Z M 207.773438 45 " clip-rule="nonzero"/></clipPath><clipPath id="clip-5"><path d="M 308.777344 31.78125 L 327 31.78125 L 327 49 L 308.777344 49 Z M 308.777344 31.78125 " clip-rule="nonzero"/></clipPath><clipPath id="clip-6"><path d="M 330 31.78125 L 347.777344 31.78125 L 347.777344 49 L 330 49 Z M 330 31.78125 " clip-rule="nonzero"/></clipPath><clipPath id="clip-7"><path d="M 330 54 L 347.777344 54 L 347.777344 70.78125 L 330 70.78125 Z M 330 54 " clip-rule="nonzero"/></clipPath><clipPath id="clip-8"><path d="M 308.777344 54 L 327 54 L 327 70.78125 L 308.777344 70.78125 Z M 308.777344 54 " clip-rule="nonzero"/></clipPath></defs><path fill="rgb(6.269836%, 5.879211%, 5.099487%)" d="M 286.542969 53.585938 C 264.808594 54.457031 258.4375 63.734375 258 68.230469 C 257.566406 72.722656 273.210938 104.480469 273.210938 104.480469 L 294.652344 103.175781 C 294.652344 103.175781 298.707031 95.054688 303.199219 85.777344 C 307.6875 76.496094 308.269531 52.714844 286.542969 53.585938 Z M 197.757812 177.554688 L 179.878906 107.957031 C 179.222656 105.398438 176.917969 103.605469 174.277344 103.597656 L 78.796875 103.339844 C 74.90625 103.332031 72.105469 107.082031 73.222656 110.8125 L 94.082031 180.664062 C 94.816406 183.125 97.078125 184.808594 99.640625 184.808594 L 192.140625 184.808594 C 195.929688 184.808594 198.703125 181.230469 197.757812 177.554688 Z M 238.082031 370.550781 L 223.882812 378.203125 C 223.929688 379.105469 223.957031 379.988281 223.957031 380.847656 L 177.890625 380.847656 C 177.890625 380.847656 183.6875 372.148438 195.566406 372.148438 C 207.445312 372.148438 206.578125 364.027344 206.578125 364.027344 L 221.292969 359.242188 C 221.292969 359.242188 221.875 359.976562 222.136719 361.101562 L 231.78125 357.71875 C 231.78125 357.71875 236.5625 362.941406 238.082031 370.550781 " fill-opacity="1" fill-rule="nonzero"/><path fill="rgb(100%, 100%, 100%)" d="M 239.894531 214.097656 L 179.050781 214.097656 L 179.050781 212.066406 L 154.632812 212.066406 C 149.003906 212.066406 144.929688 206.683594 146.457031 201.257812 L 151.125 184.664062 L 191.707031 184.664062 C 195.453125 184.664062 198.199219 181.121094 197.265625 177.488281 L 194.832031 168.027344 L 90.972656 168.027344 L 94.71875 180.566406 C 95.445312 182.996094 97.683594 184.664062 100.21875 184.664062 L 119.183594 184.664062 L 114.261719 202.933594 C 112.746094 208.5625 116.980469 214.097656 122.808594 214.097656 L 68.40625 214.097656 L 68.40625 238.460938 L 239.894531 238.460938 Z M 336.082031 239.617188 L 276.6875 231.5 C 276.6875 231.5 208.601562 249.191406 192.089844 252.957031 C 175.574219 256.726562 166.304688 268.328125 172.675781 289.789062 C 179.050781 311.25 198.171875 366.347656 198.171875 366.347656 L 221.503906 359.527344 L 222.328125 361.433594 L 237.863281 356.195312 L 222.570312 283.699219 C 231.449219 283.699219 244.597656 283.699219 263.941406 283.699219 C 315.511719 283.699219 336.515625 290.949219 336.082031 239.617188 Z M 165.988281 140.734375 C 164.5625 137.464844 162.976562 134.316406 161.300781 131.304688 L 166.011719 140.875 C 166.011719 140.875 166.003906 140.816406 165.988281 140.734375 Z M 138.488281 100.855469 L 181.660156 100.855469 C 181.660156 100.855469 193.609375 106.359375 202.230469 123.328125 C 210.921875 140.441406 214.976562 161.03125 214.976562 161.03125 L 171.953125 161.03125 C 171.828125 160.132812 171.671875 159.238281 171.511719 158.347656 L 164.851562 166.394531 C 164.851562 166.394531 163.984375 165.523438 157.175781 154.359375 C 150.476562 143.371094 160.742188 131.273438 161.074219 130.890625 C 151.183594 113.253906 138.488281 100.855469 138.488281 100.855469 Z M 256.46875 97.703125 L 252.640625 97.808594 L 256.773438 91.828125 L 258 68.230469 L 267.128906 72.4375 C 267.128906 72.4375 266.839844 83.167969 274.949219 87.371094 L 277.554688 79.105469 C 277.554688 79.105469 284.800781 78.234375 284.511719 84.90625 C 284.449219 86.335938 284.09375 87.617188 283.578125 88.75 C 280.375 95.734375 285.382812 103.890625 293.046875 103.382812 C 293.574219 103.347656 294.105469 103.28125 294.652344 103.175781 L 295.375 113.617188 L 276.542969 117.386719 L 276.6875 109.988281 L 270.457031 112.449219 C 263.40625 115.234375 255.839844 109.789062 256.234375 102.210938 L 256.46875 97.703125 " fill-opacity="1" fill-rule="nonzero"/><path fill="rgb(41.958618%, 38.819885%, 100%)" d="M 264.808594 234.613281 L 254.378906 170.019531 C 254.378906 170.019531 221.640625 201.050781 213.816406 208.007812 C 205.996094 214.96875 195.273438 216.421875 186.875 205.398438 C 178.472656 194.378906 157.320312 161.898438 157.320312 161.898438 L 174.707031 154.648438 L 199.621094 186.550781 C 199.621094 186.550781 236.125 148.851562 245.398438 139.859375 C 254.667969 130.871094 272.34375 124.199219 272.34375 124.199219 L 273.792969 116.660156 L 296.101562 106.800781 L 299.289062 118.398438 C 299.289062 118.398438 313.773438 126.8125 320.144531 130.578125 C 326.519531 134.351562 328.257812 142.46875 329.710938 153.78125 C 331.15625 165.089844 338.109375 226.859375 338.980469 238.746094 C 339.847656 250.636719 307.398438 269.199219 271.472656 233.527344 L 264.808594 234.613281 " fill-opacity="1" fill-rule="nonzero"/><g clip-path="url(#clip-0)"><path fill="rgb(6.269836%, 5.879211%, 5.099487%)" d="M 160.390625 130.832031 C 158.746094 132.894531 150.375 144.292969 156.695312 154.65625 C 157.652344 156.222656 158.488281 157.40625 159.222656 158.445312 C 159.730469 159.164062 160.191406 159.8125 160.601562 160.472656 C 160.710938 160.644531 160.894531 160.738281 161.082031 160.738281 C 161.1875 160.738281 161.289062 160.710938 161.382812 160.652344 C 161.648438 160.484375 161.726562 160.136719 161.5625 159.871094 C 161.136719 159.195312 160.664062 158.527344 160.144531 157.789062 C 159.417969 156.765625 158.59375 155.597656 157.660156 154.066406 C 152.035156 144.84375 158.925781 134.613281 160.976562 131.921875 L 165.503906 141.125 C 165.632812 141.378906 165.921875 141.5 166.191406 141.414062 C 166.460938 141.324219 166.621094 141.054688 166.570312 140.773438 C 166.558594 140.71875 165.542969 135.058594 164.675781 131.742188 C 164.359375 130.519531 164.597656 129.832031 164.976562 129.695312 C 165.425781 129.535156 166.195312 129.972656 166.660156 130.964844 C 167.359375 132.453125 167.496094 132.703125 168.375 134.34375 C 168.96875 135.453125 169.910156 137.207031 171.597656 140.414062 C 175.589844 147.996094 171.199219 155.277344 171.15625 155.347656 C 170.988281 155.613281 171.074219 155.960938 171.339844 156.128906 C 171.601562 156.292969 171.953125 156.210938 172.113281 155.941406 C 172.3125 155.625 176.898438 148.054688 172.597656 139.886719 C 170.90625 136.675781 169.964844 134.917969 169.371094 133.808594 C 168.484375 132.15625 168.367188 131.945312 167.683594 130.484375 C 166.898438 128.816406 165.53125 128.289062 164.59375 128.628906 C 163.757812 128.933594 163.050781 129.988281 163.582031 132.027344 C 163.90625 133.257812 164.246094 134.816406 164.550781 136.285156 C 163.660156 134.472656 162.730469 132.699219 161.769531 130.976562 L 161.59375 130.617188 C 161.578125 130.585938 161.546875 130.5625 161.523438 130.53125 C 153.253906 115.832031 142.980469 104.675781 139.839844 101.421875 L 181.53125 101.421875 C 182.726562 102.019531 193.71875 107.828125 201.726562 123.585938 C 209.402344 138.703125 213.496094 156.773438 214.28125 160.464844 L 179.925781 160.464844 C 179.613281 160.464844 179.359375 160.71875 179.359375 161.03125 C 179.359375 161.34375 179.613281 161.59375 179.925781 161.59375 L 214.976562 161.59375 C 215.144531 161.59375 215.308594 161.519531 215.414062 161.390625 C 215.519531 161.257812 215.5625 161.085938 215.53125 160.921875 C 215.492188 160.714844 211.359375 140.054688 202.734375 123.074219 C 194.121094 106.121094 182.390625 100.566406 181.894531 100.339844 C 181.820312 100.304688 181.742188 100.289062 181.660156 100.289062 L 138.488281 100.289062 C 138.257812 100.289062 138.050781 100.425781 137.964844 100.640625 C 137.878906 100.855469 137.929688 101.097656 138.09375 101.261719 C 138.234375 101.398438 150.667969 113.636719 160.390625 130.832031 Z M 196.6875 182.785156 C 197.894531 181.234375 198.300781 179.25 197.8125 177.347656 L 195.382812 167.886719 C 195.304688 167.582031 195 167.402344 194.695312 167.480469 C 194.394531 167.558594 194.207031 167.863281 194.285156 168.167969 L 196.71875 177.628906 C 197.117188 179.191406 196.785156 180.816406 195.796875 182.09375 Z M 336.910156 362.589844 L 311.480469 284.15625 C 311.40625 283.929688 311.480469 283.695312 311.652344 283.550781 C 303.945312 284.800781 294.335938 284.695312 282.617188 284.488281 C 282.859375 284.605469 282.996094 284.878906 282.917969 285.144531 L 260.335938 362.589844 L 296.40625 362.589844 L 296.40625 286.597656 C 296.40625 286.285156 296.65625 286.03125 296.96875 286.03125 C 297.28125 286.03125 297.535156 286.285156 297.535156 286.597656 L 297.535156 362.589844 Z M 221.785156 284.265625 L 205.566406 284.265625 L 224.503906 358.667969 C 224.582031 358.964844 224.410156 359.265625 224.117188 359.347656 L 222.429688 359.84375 L 222.824219 360.730469 L 237.207031 355.824219 Z M 131.523438 214.679688 L 131.523438 237.894531 L 239.328125 237.894531 L 239.328125 214.664062 L 131.519531 214.664062 C 131.519531 214.667969 131.523438 214.675781 131.523438 214.679688 Z M 130.390625 237.894531 L 130.390625 214.679688 C 130.390625 214.675781 130.394531 214.667969 130.394531 214.664062 L 68.972656 214.664062 L 68.972656 237.894531 Z M 122.808594 213.53125 L 178.488281 213.53125 L 178.488281 212.632812 L 154.632812 212.632812 C 151.769531 212.632812 149.140625 211.324219 147.410156 209.039062 C 145.683594 206.753906 145.136719 203.867188 145.910156 201.109375 L 150.375 185.230469 L 119.738281 185.230469 L 114.808594 203.082031 C 114.132812 205.59375 114.648438 208.21875 116.230469 210.28125 C 117.8125 212.347656 120.210938 213.53125 122.808594 213.53125 Z M 343.644531 381.53125 C 343.589844 381.550781 343.527344 381.558594 343.46875 381.558594 C 343.234375 381.558594 343.011719 381.40625 342.933594 381.167969 L 337.277344 363.722656 L 297.535156 363.722656 L 297.535156 381.429688 C 297.535156 381.738281 297.28125 381.992188 296.96875 381.992188 C 296.65625 381.992188 296.40625 381.738281 296.40625 381.429688 L 296.40625 363.722656 L 260.003906 363.722656 L 254.921875 381.152344 C 254.851562 381.394531 254.625 381.558594 254.378906 381.558594 C 254.328125 381.558594 254.273438 381.550781 254.222656 381.535156 C 253.921875 381.445312 253.75 381.132812 253.835938 380.832031 L 258.886719 363.527344 C 258.796875 363.425781 258.738281 363.300781 258.738281 363.15625 C 258.738281 362.898438 258.914062 362.691406 259.148438 362.621094 L 281.832031 284.832031 C 281.878906 284.667969 281.996094 284.546875 282.140625 284.480469 C 281.742188 284.472656 281.34375 284.464844 280.941406 284.457031 C 275.574219 284.367188 270.027344 284.265625 263.941406 284.265625 L 240.457031 284.265625 L 240.457031 380.992188 C 240.457031 381.304688 240.207031 381.558594 239.894531 381.558594 C 239.582031 381.558594 239.328125 381.304688 239.328125 380.992188 L 239.328125 284.265625 L 222.941406 284.265625 L 238.417969 356.078125 C 238.476562 356.359375 238.320312 356.640625 238.046875 356.734375 L 222.699219 361.96875 C 222.636719 361.988281 222.578125 362 222.515625 362 C 222.300781 362 222.09375 361.871094 222 361.664062 L 221.335938 360.164062 L 198.332031 366.890625 C 198.277344 366.90625 198.226562 366.914062 198.171875 366.914062 C 197.9375 366.914062 197.722656 366.765625 197.640625 366.535156 C 197.445312 365.980469 178.4375 311.175781 172.136719 289.949219 C 169.070312 279.625 169.441406 271.082031 173.246094 264.566406 C 176.769531 258.527344 183.066406 254.4375 191.960938 252.40625 C 200.425781 250.476562 221.199219 245.269531 239.328125 240.679688 L 239.328125 239.023438 L 131.523438 239.023438 L 131.523438 380.992188 C 131.523438 381.304688 131.269531 381.558594 130.957031 381.558594 C 130.644531 381.558594 130.390625 381.304688 130.390625 380.992188 L 130.390625 239.023438 L 68.972656 239.023438 L 68.972656 380.992188 C 68.972656 381.304688 68.71875 381.558594 68.40625 381.558594 C 68.09375 381.558594 67.839844 381.304688 67.839844 380.992188 L 67.839844 214.097656 C 67.839844 213.785156 68.09375 213.53125 68.40625 213.53125 L 118.347656 213.53125 C 117.195312 212.910156 116.164062 212.050781 115.332031 210.96875 C 113.539062 208.621094 112.949219 205.640625 113.71875 202.785156 L 118.566406 185.230469 L 100.21875 185.230469 C 97.453125 185.230469 94.96875 183.378906 94.175781 180.726562 L 90.433594 168.191406 C 90.34375 167.890625 90.511719 167.574219 90.8125 167.484375 C 91.109375 167.398438 91.425781 167.566406 91.515625 167.863281 L 95.257812 180.402344 C 95.910156 182.578125 97.949219 184.097656 100.21875 184.097656 L 171.925781 184.097656 L 172.769531 185.230469 L 151.550781 185.230469 L 147 201.414062 C 146.320312 203.824219 146.800781 206.359375 148.308594 208.359375 C 149.824219 210.355469 152.128906 211.503906 154.632812 211.503906 L 179.050781 211.503906 C 179.363281 211.503906 179.617188 211.757812 179.617188 212.066406 L 179.617188 213.53125 L 239.894531 213.53125 C 240.207031 213.53125 240.457031 213.785156 240.457031 214.097656 L 240.457031 240.394531 C 256.796875 236.257812 270.703125 232.699219 270.996094 232.621094 C 271.300781 232.542969 271.605469 232.726562 271.679688 233.027344 C 271.761719 233.332031 271.578125 233.640625 271.273438 233.71875 C 270.652344 233.878906 208.546875 249.78125 192.214844 253.511719 C 183.636719 255.46875 177.582031 259.378906 174.21875 265.136719 C 170.582031 271.375 170.246094 279.613281 173.21875 289.628906 C 179.191406 309.734375 196.585938 360.035156 198.53125 365.652344 L 223.277344 358.417969 L 204.289062 283.839844 C 204.246094 283.667969 204.285156 283.488281 204.390625 283.351562 C 204.496094 283.210938 204.660156 283.132812 204.835938 283.132812 L 263.941406 283.132812 C 270.039062 283.132812 275.589844 283.230469 280.960938 283.324219 C 303.449219 283.730469 318.300781 283.996094 326.707031 275.664062 C 332.957031 269.460938 335.675781 258.347656 335.519531 239.621094 C 335.515625 239.3125 335.765625 239.054688 336.078125 239.050781 C 336.078125 239.050781 336.082031 239.050781 336.082031 239.050781 C 336.394531 239.050781 336.648438 239.304688 336.648438 239.613281 C 336.808594 258.667969 333.988281 270.035156 327.5 276.46875 C 323.664062 280.273438 318.605469 282.355469 312.214844 283.460938 C 312.371094 283.523438 312.5 283.636719 312.554688 283.808594 L 344.007812 380.816406 C 344.105469 381.113281 343.941406 381.433594 343.644531 381.53125 Z M 181.121094 164 L 164.605469 172.121094 C 164.324219 172.257812 164.207031 172.597656 164.34375 172.878906 C 164.445312 173.078125 164.648438 173.195312 164.855469 173.195312 C 164.9375 173.195312 165.023438 173.175781 165.105469 173.136719 L 181.617188 165.015625 C 181.898438 164.878906 182.011719 164.542969 181.875 164.261719 C 181.742188 163.980469 181.402344 163.863281 181.121094 164 Z M 271.800781 124.359375 C 271.871094 124.605469 272.097656 124.765625 272.34375 124.765625 C 272.394531 124.765625 272.449219 124.757812 272.503906 124.742188 L 297.128906 117.492188 C 297.425781 117.40625 297.597656 117.089844 297.511719 116.789062 C 297.425781 116.492188 297.109375 116.316406 296.808594 116.410156 L 272.183594 123.65625 C 271.886719 123.742188 271.714844 124.058594 271.800781 124.359375 Z M 252.660156 98.375 L 255.875 98.285156 L 255.671875 102.183594 C 255.472656 105.933594 257.179688 109.484375 260.222656 111.675781 C 263.265625 113.871094 267.171875 114.355469 270.664062 112.976562 L 276.109375 110.828125 L 276.015625 115.609375 C 276.007812 115.921875 276.253906 116.179688 276.570312 116.183594 C 276.570312 116.183594 276.574219 116.183594 276.578125 116.183594 C 276.886719 116.183594 277.136719 115.9375 277.144531 115.628906 L 277.253906 110.003906 C 277.257812 109.8125 277.167969 109.632812 277.011719 109.527344 C 276.855469 109.417969 276.660156 109.398438 276.480469 109.460938 L 270.25 111.925781 C 267.121094 113.160156 263.617188 112.726562 260.882812 110.757812 C 258.152344 108.792969 256.625 105.609375 256.796875 102.242188 L 257.03125 97.734375 C 257.042969 97.574219 256.984375 97.421875 256.871094 97.308594 C 256.761719 97.195312 256.585938 97.132812 256.453125 97.136719 L 253.742188 97.210938 L 257.238281 92.152344 C 257.300781 92.0625 257.335938 91.964844 257.339844 91.859375 L 257.851562 82.03125 C 257.859375 82.085938 257.871094 82.144531 257.898438 82.195312 C 258.042969 82.472656 258.386719 82.578125 258.660156 82.433594 C 258.738281 82.398438 260.5 81.503906 261.945312 83.761719 C 262.050781 83.929688 262.234375 84.019531 262.417969 84.019531 C 262.523438 84.019531 262.628906 83.992188 262.726562 83.933594 C 262.988281 83.765625 263.0625 83.414062 262.894531 83.152344 C 261.300781 80.65625 259.085938 80.933594 258.136719 81.433594 C 258.003906 81.503906 257.910156 81.621094 257.867188 81.753906 L 258.523438 69.09375 L 266.5625 72.796875 C 266.589844 74.804688 267.132812 83.953125 274.691406 87.875 C 274.839844 87.949219 275.011719 87.957031 275.164062 87.894531 C 275.320312 87.828125 275.4375 87.703125 275.488281 87.539062 L 277.980469 79.644531 C 278.867188 79.605469 281.175781 79.65625 282.636719 81.015625 C 283.578125 81.890625 284.019531 83.191406 283.945312 84.878906 C 283.890625 86.128906 283.59375 87.351562 283.0625 88.515625 C 281.421875 92.09375 281.777344 96.308594 283.984375 99.515625 C 286.09375 102.574219 289.414062 104.191406 293.082031 103.949219 C 293.429688 103.925781 293.78125 103.890625 294.128906 103.839844 L 294.371094 107.300781 C 294.390625 107.613281 294.664062 107.832031 294.972656 107.828125 C 295.289062 107.804688 295.519531 107.535156 295.5 107.222656 L 295.214844 103.136719 C 295.207031 102.972656 295.125 102.824219 294.996094 102.726562 C 294.867188 102.628906 294.710938 102.589844 294.542969 102.621094 C 294.039062 102.71875 293.519531 102.785156 293.003906 102.816406 C 289.75 103.039062 286.789062 101.597656 284.914062 98.871094 C 282.933594 95.992188 282.617188 92.207031 284.089844 88.984375 C 284.683594 87.6875 285.015625 86.324219 285.074219 84.929688 C 285.164062 82.890625 284.597656 81.292969 283.398438 80.179688 C 281.1875 78.125 277.644531 78.527344 277.492188 78.542969 C 277.269531 78.570312 277.085938 78.722656 277.019531 78.9375 L 274.617188 86.539062 C 267.523438 82.34375 267.691406 72.550781 267.691406 72.449219 C 267.699219 72.226562 267.570312 72.015625 267.363281 71.921875 L 258.238281 67.714844 C 258.070312 67.640625 257.871094 67.648438 257.710938 67.746094 C 257.546875 67.84375 257.449219 68.015625 257.4375 68.203125 L 256.21875 91.640625 L 252.175781 97.488281 C 252.054688 97.664062 252.042969 97.890625 252.144531 98.078125 C 252.246094 98.265625 252.429688 98.375 252.660156 98.375 Z M 262.289062 99.652344 C 260.757812 101.761719 258.707031 101.8125 258.617188 101.8125 C 258.304688 101.8125 258.054688 102.0625 258.054688 102.375 C 258.054688 102.691406 258.304688 102.941406 258.617188 102.941406 C 258.726562 102.941406 261.316406 102.914062 263.203125 100.316406 C 263.386719 100.066406 263.332031 99.710938 263.078125 99.527344 C 262.828125 99.347656 262.472656 99.398438 262.289062 99.652344 Z M 265.214844 159.476562 C 265.433594 159.699219 265.429688 160.058594 265.203125 160.277344 L 254.773438 170.425781 C 254.664062 170.53125 254.523438 170.585938 254.378906 170.585938 C 254.234375 170.585938 254.085938 170.527344 253.972656 170.414062 C 253.757812 170.1875 253.761719 169.832031 253.984375 169.617188 L 264.417969 159.464844 C 264.640625 159.246094 264.996094 159.253906 265.214844 159.476562 " fill-opacity="1" fill-rule="nonzero"/></g><g clip-path="url(#clip-1)"><path fill="rgb(6.269836%, 5.879211%, 5.099487%)" d="M 260.175781 90.125 C 260.65625 90.125 261.042969 89.738281 261.042969 89.257812 C 261.042969 88.773438 260.65625 88.386719 260.175781 88.386719 C 259.691406 88.386719 259.304688 88.773438 259.304688 89.257812 C 259.304688 89.738281 259.691406 90.125 260.175781 90.125 Z M 321.882812 287.46875 C 292.269531 287.46875 263.015625 287.105469 252.148438 286.953125 C 249.664062 286.917969 247.925781 284.402344 248.855469 282.09375 C 250.234375 278.6875 253.261719 274.707031 259.882812 274.707031 C 271.472656 274.707031 274.660156 274.707031 283.351562 274.707031 C 301.027344 274.707031 305.953125 230.339844 320.726562 230.339844 C 326.8125 230.339844 334.054688 230.339844 340.429688 230.339844 C 346.800781 230.339844 359.261719 287.46875 321.882812 287.46875 " fill-opacity="1" fill-rule="nonzero"/></g><g clip-path="url(#clip-2)"><path fill="rgb(41.958618%, 38.819885%, 100%)" d="M 143.507812 39.695312 C 141.355469 39.695312 139.273438 39.988281 137.289062 40.527344 C 132.867188 27.621094 120.660156 18.34375 106.28125 18.34375 C 92.640625 18.34375 80.953125 26.695312 76.011719 38.570312 C 74.25 38.011719 72.375 37.707031 70.425781 37.707031 C 60.234375 37.707031 51.972656 45.988281 51.972656 56.199219 C 51.972656 56.214844 51.972656 56.222656 51.972656 56.238281 C 43.894531 56.761719 37.5 63.496094 37.5 71.726562 C 37.5 80.304688 44.4375 87.257812 52.992188 87.257812 C 53.230469 87.257812 53.46875 87.25 53.703125 87.238281 L 53.703125 87.257812 L 53.824219 87.234375 C 53.929688 87.226562 54.035156 87.21875 54.140625 87.210938 L 141.683594 87.210938 C 142.285156 87.257812 142.894531 87.285156 143.507812 87.285156 C 156.621094 87.285156 167.25 76.632812 167.25 63.492188 C 167.25 50.351562 156.621094 39.695312 143.507812 39.695312 Z M 143.507812 39.695312 " fill-opacity="1" fill-rule="nonzero"/></g><g clip-path="url(#clip-3)"><path fill="rgb(41.958618%, 38.819885%, 100%)" d="M 218.253906 32.21875 L 220.125 35.582031 C 216.648438 37.328125 214.246094 40.679688 214.246094 44.59375 L 236.679688 44.59375 C 236.679688 40.695312 234.277344 37.332031 230.804688 35.582031 L 232.675781 32.21875 C 232.675781 32.21875 232.808594 32.082031 232.542969 31.949219 C 232.410156 31.8125 232.273438 32.082031 232.273438 32.082031 L 230.269531 35.449219 C 228.699219 34.734375 227.050781 34.378906 225.328125 34.371094 C 223.605469 34.378906 221.957031 34.734375 220.386719 35.449219 L 218.386719 32.085938 C 218.386719 32.085938 218.253906 31.953125 218.117188 31.953125 C 218.132812 32.054688 218.175781 32.144531 218.25 32.222656 Z M 220.136719 38.808594 C 220.65625 38.808594 221.203125 39.332031 221.203125 39.882812 C 221.203125 40.433594 220.683594 40.957031 220.136719 40.957031 C 219.992188 40.960938 219.855469 40.933594 219.726562 40.882812 C 219.59375 40.828125 219.476562 40.75 219.375 40.648438 C 219.277344 40.546875 219.199219 40.429688 219.144531 40.296875 C 219.09375 40.164062 219.066406 40.027344 219.066406 39.882812 C 219.066406 39.738281 219.09375 39.601562 219.144531 39.46875 C 219.199219 39.335938 219.277344 39.21875 219.375 39.117188 C 219.476562 39.015625 219.59375 38.9375 219.726562 38.886719 C 219.855469 38.832031 219.992188 38.804688 220.136719 38.808594 Z M 230.820312 38.808594 C 231.339844 38.808594 231.886719 39.332031 231.886719 39.882812 C 231.886719 40.433594 231.367188 40.957031 230.820312 40.957031 C 230.679688 40.960938 230.542969 40.933594 230.410156 40.882812 C 230.277344 40.828125 230.160156 40.75 230.0625 40.648438 C 229.960938 40.546875 229.882812 40.429688 229.828125 40.296875 C 229.777344 40.164062 229.75 40.027344 229.753906 39.882812 C 229.75 39.738281 229.777344 39.601562 229.828125 39.46875 C 229.882812 39.335938 229.960938 39.21875 230.0625 39.117188 C 230.160156 39.015625 230.277344 38.9375 230.410156 38.886719 C 230.542969 38.832031 230.679688 38.804688 230.820312 38.808594 Z M 214.109375 45.9375 L 214.109375 63.15625 C 214.109375 63.964844 215.179688 65.175781 215.980469 65.175781 L 218.652344 65.175781 L 218.652344 71.09375 C 218.652344 72.570312 219.71875 73.78125 221.054688 73.78125 C 222.390625 73.78125 223.460938 72.574219 223.460938 71.09375 L 223.460938 65.171875 L 227.332031 65.171875 L 227.332031 71.089844 C 227.332031 72.570312 228.398438 73.78125 229.734375 73.78125 C 231.070312 73.78125 232.136719 72.570312 232.136719 71.089844 L 232.136719 65.171875 L 234.808594 65.171875 C 235.609375 65.171875 236.679688 64.097656 236.679688 63.15625 L 236.679688 45.9375 Z M 214.109375 45.9375 " fill-opacity="1" fill-rule="nonzero"/></g><g clip-path="url(#clip-4)"><path fill="rgb(41.958618%, 38.819885%, 100%)" d="M 210.371094 45.535156 C 211.707031 45.535156 212.773438 46.746094 212.773438 48.226562 L 212.773438 58.449219 C 212.773438 59.925781 211.707031 61.136719 210.371094 61.136719 C 209.035156 61.136719 207.964844 59.929688 207.964844 58.449219 L 207.964844 48.226562 C 207.964844 46.746094 209.035156 45.535156 210.371094 45.535156 Z M 210.371094 45.535156 " fill-opacity="1" fill-rule="nonzero"/></g><path fill="rgb(41.958618%, 38.819885%, 100%)" d="M 240.554688 45.535156 C 241.890625 45.535156 242.957031 46.746094 242.957031 48.226562 L 242.957031 58.449219 C 242.957031 59.925781 241.890625 61.136719 240.554688 61.136719 C 239.21875 61.136719 238.152344 59.929688 238.152344 58.449219 L 238.152344 48.226562 C 238.152344 46.746094 239.21875 45.535156 240.554688 45.535156 Z M 240.554688 45.535156 " fill-opacity="1" fill-rule="nonzero"/><g clip-path="url(#clip-5)"><path fill="rgb(41.958618%, 38.819885%, 100%)" d="M 310.605469 48.234375 C 311.644531 48.234375 312.433594 47.441406 312.433594 46.40625 C 312.433594 45.613281 311.949219 44.945312 311.214844 44.699219 L 311.214844 40.3125 L 316.214844 40.3125 C 316.457031 41.042969 317.128906 41.53125 317.917969 41.53125 C 318.957031 41.53125 319.746094 40.738281 319.746094 39.703125 C 319.746094 38.667969 318.957031 37.875 317.917969 37.875 C 317.128906 37.875 316.457031 38.363281 316.214844 39.09375 L 314.871094 39.09375 L 314.871094 34.21875 L 322.917969 34.21875 C 323.160156 34.949219 323.832031 35.4375 324.621094 35.4375 C 325.660156 35.4375 326.449219 34.644531 326.449219 33.609375 C 326.449219 32.574219 325.660156 31.78125 324.621094 31.78125 C 323.832031 31.78125 323.160156 32.269531 322.917969 33 L 314.261719 33 C 313.898438 33 313.652344 33.242188 313.652344 33.609375 L 313.652344 39.09375 L 310.605469 39.09375 C 310.242188 39.09375 309.996094 39.335938 309.996094 39.703125 L 309.996094 44.699219 C 309.265625 44.945312 308.777344 45.613281 308.777344 46.40625 C 308.777344 47.441406 309.570312 48.234375 310.605469 48.234375 Z M 324.621094 33 C 324.988281 33 325.230469 33.242188 325.230469 33.609375 C 325.230469 33.976562 324.988281 34.21875 324.621094 34.21875 C 324.257812 34.21875 324.011719 33.976562 324.011719 33.609375 C 324.011719 33.242188 324.257812 33 324.621094 33 Z M 317.917969 39.09375 C 318.285156 39.09375 318.527344 39.335938 318.527344 39.703125 C 318.527344 40.070312 318.285156 40.3125 317.917969 40.3125 C 317.554688 40.3125 317.308594 40.070312 317.308594 39.703125 C 317.308594 39.335938 317.554688 39.09375 317.917969 39.09375 Z M 310.605469 45.796875 C 310.972656 45.796875 311.214844 46.039062 311.214844 46.40625 C 311.214844 46.773438 310.972656 47.015625 310.605469 47.015625 C 310.242188 47.015625 309.996094 46.773438 309.996094 46.40625 C 309.996094 46.039062 310.242188 45.796875 310.605469 45.796875 Z M 310.605469 45.796875 " fill-opacity="1" fill-rule="nonzero"/></g><g clip-path="url(#clip-6)"><path fill="rgb(41.958618%, 38.819885%, 100%)" d="M 331.933594 35.4375 C 332.726562 35.4375 333.398438 34.949219 333.640625 34.21875 L 341.683594 34.21875 L 341.683594 39.09375 L 340.34375 39.09375 C 340.101562 38.363281 339.429688 37.875 338.636719 37.875 C 337.601562 37.875 336.808594 38.667969 336.808594 39.703125 C 336.808594 40.738281 337.601562 41.53125 338.636719 41.53125 C 339.429688 41.53125 340.101562 41.042969 340.34375 40.3125 L 345.339844 40.3125 L 345.339844 44.699219 C 344.609375 44.945312 344.121094 45.613281 344.121094 46.40625 C 344.121094 47.441406 344.914062 48.234375 345.949219 48.234375 C 346.988281 48.234375 347.777344 47.441406 347.777344 46.40625 C 347.777344 45.613281 347.292969 44.945312 346.558594 44.699219 L 346.558594 39.703125 C 346.558594 39.335938 346.316406 39.09375 345.949219 39.09375 L 342.902344 39.09375 L 342.902344 33.609375 C 342.902344 33.242188 342.660156 33 342.292969 33 L 333.640625 33 C 333.398438 32.269531 332.726562 31.78125 331.933594 31.78125 C 330.898438 31.78125 330.105469 32.574219 330.105469 33.609375 C 330.105469 34.644531 330.898438 35.4375 331.933594 35.4375 Z M 345.949219 47.015625 C 345.585938 47.015625 345.339844 46.773438 345.339844 46.40625 C 345.339844 46.039062 345.585938 45.796875 345.949219 45.796875 C 346.316406 45.796875 346.558594 46.039062 346.558594 46.40625 C 346.558594 46.773438 346.316406 47.015625 345.949219 47.015625 Z M 338.636719 40.3125 C 338.273438 40.3125 338.027344 40.070312 338.027344 39.703125 C 338.027344 39.335938 338.273438 39.09375 338.636719 39.09375 C 339.003906 39.09375 339.246094 39.335938 339.246094 39.703125 C 339.246094 40.070312 339.003906 40.3125 338.636719 40.3125 Z M 331.933594 33 C 332.300781 33 332.542969 33.242188 332.542969 33.609375 C 332.542969 33.976562 332.300781 34.21875 331.933594 34.21875 C 331.570312 34.21875 331.324219 33.976562 331.324219 33.609375 C 331.324219 33.242188 331.570312 33 331.933594 33 Z M 331.933594 33 " fill-opacity="1" fill-rule="nonzero"/></g><g clip-path="url(#clip-7)"><path fill="rgb(41.958618%, 38.819885%, 100%)" d="M 345.949219 54.328125 C 344.914062 54.328125 344.121094 55.121094 344.121094 56.15625 C 344.121094 56.949219 344.609375 57.617188 345.339844 57.863281 L 345.339844 62.25 L 340.34375 62.25 C 340.101562 61.519531 339.429688 61.03125 338.636719 61.03125 C 337.601562 61.03125 336.808594 61.824219 336.808594 62.859375 C 336.808594 63.894531 337.601562 64.6875 338.636719 64.6875 C 339.429688 64.6875 340.101562 64.199219 340.34375 63.46875 L 341.683594 63.46875 L 341.683594 68.34375 L 333.640625 68.34375 C 333.398438 67.613281 332.726562 67.125 331.933594 67.125 C 330.898438 67.125 330.105469 67.917969 330.105469 68.953125 C 330.105469 69.988281 330.898438 70.78125 331.933594 70.78125 C 332.726562 70.78125 333.398438 70.292969 333.640625 69.5625 L 342.292969 69.5625 C 342.660156 69.5625 342.902344 69.320312 342.902344 68.953125 L 342.902344 63.46875 L 345.949219 63.46875 C 346.316406 63.46875 346.558594 63.226562 346.558594 62.859375 L 346.558594 57.863281 C 347.292969 57.617188 347.777344 56.949219 347.777344 56.15625 C 347.777344 55.121094 346.988281 54.328125 345.949219 54.328125 Z M 331.933594 69.5625 C 331.570312 69.5625 331.324219 69.320312 331.324219 68.953125 C 331.324219 68.585938 331.570312 68.34375 331.933594 68.34375 C 332.300781 68.34375 332.542969 68.585938 332.542969 68.953125 C 332.542969 69.320312 332.300781 69.5625 331.933594 69.5625 Z M 338.636719 63.46875 C 338.273438 63.46875 338.027344 63.226562 338.027344 62.859375 C 338.027344 62.492188 338.273438 62.25 338.636719 62.25 C 339.003906 62.25 339.246094 62.492188 339.246094 62.859375 C 339.246094 63.226562 339.003906 63.46875 338.636719 63.46875 Z M 345.949219 56.765625 C 345.585938 56.765625 345.339844 56.523438 345.339844 56.15625 C 345.339844 55.789062 345.585938 55.546875 345.949219 55.546875 C 346.316406 55.546875 346.558594 55.789062 346.558594 56.15625 C 346.558594 56.523438 346.316406 56.765625 345.949219 56.765625 Z M 345.949219 56.765625 " fill-opacity="1" fill-rule="nonzero"/></g><g clip-path="url(#clip-8)"><path fill="rgb(41.958618%, 38.819885%, 100%)" d="M 324.621094 67.125 C 323.832031 67.125 323.160156 67.613281 322.917969 68.34375 L 314.871094 68.34375 L 314.871094 63.46875 L 316.214844 63.46875 C 316.457031 64.199219 317.128906 64.6875 317.917969 64.6875 C 318.957031 64.6875 319.746094 63.894531 319.746094 62.859375 C 319.746094 61.824219 318.957031 61.03125 317.917969 61.03125 C 317.128906 61.03125 316.457031 61.519531 316.214844 62.25 L 311.214844 62.25 L 311.214844 57.863281 C 311.949219 57.617188 312.433594 56.949219 312.433594 56.15625 C 312.433594 55.121094 311.644531 54.328125 310.605469 54.328125 C 309.570312 54.328125 308.777344 55.121094 308.777344 56.15625 C 308.777344 56.949219 309.265625 57.617188 309.996094 57.863281 L 309.996094 62.859375 C 309.996094 63.226562 310.242188 63.46875 310.605469 63.46875 L 313.652344 63.46875 L 313.652344 68.953125 C 313.652344 69.320312 313.898438 69.5625 314.261719 69.5625 L 322.917969 69.5625 C 323.160156 70.292969 323.832031 70.78125 324.621094 70.78125 C 325.660156 70.78125 326.449219 69.988281 326.449219 68.953125 C 326.449219 67.917969 325.660156 67.125 324.621094 67.125 Z M 310.605469 55.546875 C 310.972656 55.546875 311.214844 55.789062 311.214844 56.15625 C 311.214844 56.523438 310.972656 56.765625 310.605469 56.765625 C 310.242188 56.765625 309.996094 56.523438 309.996094 56.15625 C 309.996094 55.789062 310.242188 55.546875 310.605469 55.546875 Z M 317.917969 62.25 C 318.285156 62.25 318.527344 62.492188 318.527344 62.859375 C 318.527344 63.226562 318.285156 63.46875 317.917969 63.46875 C 317.554688 63.46875 317.308594 63.226562 317.308594 62.859375 C 317.308594 62.492188 317.554688 62.25 317.917969 62.25 Z M 324.621094 69.5625 C 324.257812 69.5625 324.011719 69.320312 324.011719 68.953125 C 324.011719 68.585938 324.257812 68.34375 324.621094 68.34375 C 324.988281 68.34375 325.230469 68.585938 325.230469 68.953125 C 325.230469 69.320312 324.988281 69.5625 324.621094 69.5625 Z M 324.621094 69.5625 " fill-opacity="1" fill-rule="nonzero"/></g><path fill="rgb(41.958618%, 38.819885%, 100%)" d="M 322.183594 44.578125 C 321.820312 44.578125 321.574219 44.820312 321.574219 45.1875 L 321.574219 57.375 C 321.574219 57.742188 321.820312 57.984375 322.183594 57.984375 L 334.371094 57.984375 C 334.738281 57.984375 334.980469 57.742188 334.980469 57.375 L 334.980469 45.1875 C 334.980469 44.820312 334.738281 44.578125 334.371094 44.578125 Z M 333.761719 56.765625 L 322.792969 56.765625 L 322.792969 45.796875 L 333.761719 45.796875 Z M 333.761719 56.765625 " fill-opacity="1" fill-rule="nonzero"/><path fill="rgb(41.958618%, 38.819885%, 100%)" d="M 325.230469 42.140625 L 325.230469 39.703125 L 324.011719 39.703125 L 324.011719 42.140625 L 319.746094 42.140625 C 319.382812 42.140625 319.136719 42.382812 319.136719 42.75 L 319.136719 47.015625 L 316.089844 47.015625 L 316.089844 48.234375 L 320.355469 48.234375 L 320.355469 43.359375 L 336.199219 43.359375 L 336.199219 48.234375 L 340.464844 48.234375 L 340.464844 47.015625 L 337.417969 47.015625 L 337.417969 42.75 C 337.417969 42.382812 337.175781 42.140625 336.808594 42.140625 L 332.542969 42.140625 L 332.542969 39.703125 L 331.324219 39.703125 L 331.324219 42.140625 L 328.886719 42.140625 L 328.886719 39.703125 L 327.667969 39.703125 L 327.667969 42.140625 Z M 325.230469 42.140625 " fill-opacity="1" fill-rule="nonzero"/><path fill="rgb(41.958618%, 38.819885%, 100%)" d="M 331.324219 60.421875 L 331.324219 62.859375 L 332.542969 62.859375 L 332.542969 60.421875 L 336.808594 60.421875 C 337.175781 60.421875 337.417969 60.179688 337.417969 59.8125 L 337.417969 55.546875 L 340.464844 55.546875 L 340.464844 54.328125 L 336.199219 54.328125 L 336.199219 59.203125 L 320.355469 59.203125 L 320.355469 54.328125 L 316.089844 54.328125 L 316.089844 55.546875 L 319.136719 55.546875 L 319.136719 59.8125 C 319.136719 60.179688 319.382812 60.421875 319.746094 60.421875 L 324.011719 60.421875 L 324.011719 62.859375 L 325.230469 62.859375 L 325.230469 60.421875 L 327.667969 60.421875 L 327.667969 62.859375 L 328.886719 62.859375 L 328.886719 60.421875 Z M 331.324219 60.421875 " fill-opacity="1" fill-rule="nonzero"/><path fill="rgb(41.958618%, 38.819885%, 100%)" d="M 325.839844 52.5 L 327.058594 52.5 L 327.058594 53.71875 L 328.277344 53.71875 L 328.277344 49.453125 C 328.277344 49.085938 328.035156 48.84375 327.667969 48.84375 L 325.230469 48.84375 C 324.867188 48.84375 324.621094 49.085938 324.621094 49.453125 L 324.621094 53.71875 L 325.839844 53.71875 Z M 327.058594 50.0625 L 327.058594 51.28125 L 325.839844 51.28125 L 325.839844 50.0625 Z M 327.058594 50.0625 " fill-opacity="1" fill-rule="nonzero"/><path fill="rgb(41.958618%, 38.819885%, 100%)" d="M 331.933594 52.5 L 331.324219 52.5 L 331.324219 50.0625 L 331.933594 50.0625 L 331.933594 48.84375 L 329.496094 48.84375 L 329.496094 50.0625 L 330.105469 50.0625 L 330.105469 52.5 L 329.496094 52.5 L 329.496094 53.71875 L 331.933594 53.71875 Z M 331.933594 52.5 " fill-opacity="1" fill-rule="nonzero"/><path fill="rgb(41.958618%, 38.819885%, 100%)" d="M 336.199219 50.671875 L 340.464844 50.671875 L 340.464844 51.890625 L 336.199219 51.890625 Z M 336.199219 50.671875 " fill-opacity="1" fill-rule="nonzero"/><path fill="rgb(41.958618%, 38.819885%, 100%)" d="M 316.089844 50.671875 L 320.355469 50.671875 L 320.355469 51.890625 L 316.089844 51.890625 Z M 316.089844 50.671875 " fill-opacity="1" fill-rule="nonzero"/></svg>